# Blender 3.4.0
# www.blender.org
mtllib wheel_holder.mtl
o Cube
v -0.509678 0.093074 2.342610
v -0.509678 0.202437 2.342610
v -0.509678 0.093074 -0.509678
v -0.509678 0.202437 -0.509678
v 0.509678 0.093074 2.342610
v 0.509678 0.202437 2.342610
v 0.509678 0.093074 -0.509678
v 0.509678 0.202437 -0.509678
v -0.385232 0.093074 -0.509678
v -0.385232 0.202437 -0.509678
v -0.385232 0.093074 2.342610
v -0.385232 0.202437 2.342610
v 0.389865 0.202437 -0.509678
v 0.389865 0.093074 2.342610
v 0.389865 0.093074 -0.509678
v 0.389865 0.202437 2.342610
v -0.522122 0.082138 2.349000
v -0.522122 0.213373 2.349000
v 0.521659 0.213373 2.349000
v 0.521659 0.082138 2.349000
v 0.377884 0.082138 2.349000
v -0.372788 0.213373 2.349000
v -0.372788 0.082138 2.349000
v 0.377884 0.213373 2.349000
v -0.522122 0.213373 -0.525114
v -0.522122 0.082138 -0.525114
v -0.372788 0.082138 -0.525114
v 0.377884 0.213373 -0.525114
v 0.521659 0.213373 -0.525114
v 0.521659 0.082138 -0.525114
v -0.372788 0.213373 -0.525114
v 0.377884 0.082138 -0.525114
vn -1.0000 -0.0000 -0.0000
vn -0.0000 0.8160 0.5781
vn 1.0000 -0.0000 -0.0000
vn -0.0000 0.5045 -0.8634
vn -0.0000 -1.0000 -0.0000
vn -0.0000 1.0000 -0.0000
vn -0.0000 -0.0000 1.0000
vn -0.7900 -0.0000 0.6131
vn -0.0000 -0.5045 -0.8634
vn -0.0000 -0.0000 -1.0000
vn -0.4568 -0.0000 -0.8896
vn -0.4706 -0.0000 -0.8824
vn 0.4706 -0.0000 -0.8824
vn 0.4568 -0.0000 -0.8896
vn -0.7785 -0.0000 0.6276
vn 0.7785 -0.0000 0.6276
vn 0.7900 -0.0000 0.6131
vn -0.0000 -0.8160 0.5781
vt 0.125000 0.750000
vt 0.375000 0.000000
vt 0.625000 0.000000
vt 0.875000 0.750000
vt 0.375000 0.250000
vt 0.125000 0.500000
vt 0.625000 0.250000
vt 0.875000 0.500000
vt 0.375000 0.750000
vt 0.625000 0.750000
vt 0.375000 0.500000
vt 0.625000 0.500000
vt 0.375000 0.280521
vt 0.155521 0.500000
vt 0.625000 0.280521
vt 0.844479 0.500000
vt 0.155521 0.750000
vt 0.375000 0.969479
vt 0.844479 0.750000
vt 0.625000 0.969479
vt 0.654384 0.500000
vt 0.625000 0.470616
vt 0.345616 0.750000
vt 0.375000 0.779384
vt 0.375000 0.470616
vt 0.345616 0.500000
vt 0.654384 0.750000
vt 0.625000 0.779384
vt 0.125000 0.750000
vt 0.375000 1.000000
vt 0.375000 0.000000
vt 0.625000 1.000000
vt 0.625000 0.000000
vt 0.875000 0.750000
vt 0.625000 0.750000
vt 0.375000 0.750000
vt 0.345616 0.750000
vt 0.375000 0.779384
vt 0.844479 0.750000
vt 0.625000 0.969479
vt 0.155521 0.750000
vt 0.375000 0.969479
vt 0.654384 0.750000
vt 0.625000 0.779384
vt 0.625000 0.250000
vt 0.875000 0.500000
vt 0.375000 0.250000
vt 0.125000 0.500000
vt 0.375000 0.280521
vt 0.155521 0.500000
vt 0.654384 0.500000
vt 0.625000 0.470616
vt 0.625000 0.500000
vt 0.375000 0.500000
vt 0.625000 0.280521
vt 0.844479 0.500000
vt 0.375000 0.470616
vt 0.345616 0.500000
s 0
usemtl Material
f 13/21/2 8/12/2 29/53/2 28/51/2
f 6/10/4 16/27/4 24/43/4 19/35/4
f 13/21/6 10/16/6 12/19/6 16/27/6
f 14/24/7 16/28/7 12/20/7 11/18/7
f 15/25/8 13/22/8 28/52/8 32/57/8
f 9/14/5 15/26/5 14/23/5 11/17/5
f 9/13/10 10/15/10 13/22/10 15/25/10
f 16/28/12 14/24/12 21/38/12 24/44/12
f 12/19/4 2/4/4 18/34/4 22/39/4
f 11/18/14 12/20/14 22/40/14 23/42/14
f 10/15/16 9/13/16 27/49/16 31/55/16
f 4/8/2 10/16/2 31/56/2 25/46/2
usemtl Material.001
f 1/2/1 2/3/1 4/7/1 3/5/1
f 7/11/3 8/12/3 6/10/3 5/9/3
f 15/26/5 7/11/5 5/9/5 14/23/5
f 10/16/6 4/8/6 2/4/6 12/19/6
f 3/6/5 9/14/5 11/17/5 1/1/5
f 1/1/9 11/17/9 23/41/9 17/29/9
f 8/12/6 13/21/6 16/27/6 6/10/6
f 23/42/7 22/40/7 18/32/7 17/30/7
f 20/36/7 19/35/7 24/44/7 21/38/7
f 2/3/11 1/2/11 17/31/11 18/33/11
f 14/23/9 5/9/9 20/36/9 21/37/9
f 5/9/13 6/10/13 19/35/13 20/36/13
f 32/57/10 28/52/10 29/53/10 30/54/10
f 26/47/10 25/45/10 31/55/10 27/49/10
f 3/5/15 4/7/15 25/45/15 26/47/15
f 8/12/17 7/11/17 30/54/17 29/53/17
f 9/14/18 3/6/18 26/48/18 27/50/18
f 7/11/18 15/26/18 32/58/18 30/54/18
o Cube.001
v 0.395054 0.179890 -0.401315
v 0.403571 0.855122 -0.409832
v 0.395054 0.179890 -0.505071
v 0.403571 0.855122 -0.496554
v 0.504838 0.179890 -0.401315
v 0.496321 0.855122 -0.409832
v 0.504838 0.179890 -0.505071
v 0.496321 0.855122 -0.496554
v -0.391408 0.179890 -0.401315
v -0.399925 0.855122 -0.409832
v -0.391408 0.179890 -0.505071
v -0.399925 0.855122 -0.496554
v -0.501192 0.179890 -0.401315
v -0.492675 0.855122 -0.409832
v -0.501192 0.179890 -0.505071
v -0.492675 0.855122 -0.496554
v 0.395054 0.179890 2.224872
v 0.403571 0.855122 2.233389
v 0.395054 0.179890 2.328627
v 0.403571 0.855122 2.320110
v 0.504838 0.179890 2.224872
v 0.496321 0.855122 2.233389
v 0.504838 0.179890 2.328627
v 0.496321 0.855122 2.320110
v -0.391408 0.179890 2.224871
v -0.399925 0.855122 2.233389
v -0.391408 0.179890 2.328627
v -0.399925 0.855122 2.320110
v -0.501192 0.179890 2.224871
v -0.492675 0.855122 2.233389
v -0.501192 0.179890 2.328627
v -0.492675 0.855122 2.320110
v 0.395054 0.855122 -0.401315
v 0.395054 0.855122 -0.505071
v 0.504838 0.855122 -0.505071
v 0.504838 0.855122 -0.401315
v -0.391408 0.855122 -0.401315
v -0.391408 0.855122 -0.505071
v -0.501192 0.855122 -0.505071
v -0.501192 0.855122 -0.401315
v 0.395054 0.855122 2.224872
v 0.395054 0.855122 2.328627
v 0.504838 0.855122 2.328627
v 0.504838 0.855122 2.224872
v -0.391408 0.855122 2.224871
v -0.391408 0.855122 2.328627
v -0.501192 0.855122 2.328627
v -0.501192 0.855122 2.224871
v 0.403571 0.249203 -0.409832
v 0.403571 0.249203 -0.496554
v 0.496321 0.249203 -0.496554
v 0.496321 0.249203 -0.409832
v -0.399925 0.249203 -0.409832
v -0.399925 0.249203 -0.496554
v -0.492675 0.249203 -0.496554
v -0.492675 0.249203 -0.409832
v 0.403571 0.249203 2.233389
v 0.403571 0.249203 2.320110
v 0.496321 0.249203 2.320110
v 0.496321 0.249203 2.233389
v -0.399925 0.249203 2.233389
v -0.399925 0.249203 2.320110
v -0.492675 0.249203 2.320110
v -0.492675 0.249203 2.233389
vn -1.0000 -0.0000 -0.0000
vn -0.0000 -0.0000 -1.0000
vn 1.0000 -0.0000 -0.0000
vn -0.0000 -0.0000 1.0000
vn -0.0000 -1.0000 -0.0000
vn -0.0000 1.0000 -0.0000
vt 0.375000 0.000000
vt 0.375000 1.000000
vt 0.125000 0.750000
vt 0.855605 0.729478
vt 0.375000 0.250000
vt 0.125000 0.500000
vt 0.855605 0.520522
vt 0.375000 0.750000
vt 0.644395 0.729478
vt 0.375000 0.500000
vt 0.644395 0.520522
vt 0.375000 0.000000
vt 0.375000 1.000000
vt 0.125000 0.750000
vt 0.855605 0.729478
vt 0.375000 0.250000
vt 0.125000 0.500000
vt 0.855605 0.520522
vt 0.375000 0.750000
vt 0.644395 0.729478
vt 0.375000 0.500000
vt 0.644395 0.520522
vt 0.375000 0.000000
vt 0.375000 1.000000
vt 0.125000 0.750000
vt 0.855605 0.729478
vt 0.375000 0.250000
vt 0.125000 0.500000
vt 0.855605 0.520522
vt 0.375000 0.750000
vt 0.644395 0.729478
vt 0.375000 0.500000
vt 0.644395 0.520522
vt 0.375000 0.000000
vt 0.375000 1.000000
vt 0.125000 0.750000
vt 0.855605 0.729478
vt 0.375000 0.250000
vt 0.125000 0.500000
vt 0.855605 0.520522
vt 0.375000 0.750000
vt 0.644395 0.729478
vt 0.375000 0.500000
vt 0.644395 0.520522
vt 0.625000 0.000000
vt 0.625000 1.000000
vt 0.875000 0.750000
vt 0.625000 0.250000
vt 0.875000 0.500000
vt 0.625000 0.500000
vt 0.625000 0.750000
vt 0.625000 0.000000
vt 0.625000 1.000000
vt 0.875000 0.750000
vt 0.625000 0.250000
vt 0.875000 0.500000
vt 0.625000 0.500000
vt 0.625000 0.750000
vt 0.625000 0.000000
vt 0.625000 1.000000
vt 0.875000 0.750000
vt 0.625000 0.250000
vt 0.875000 0.500000
vt 0.625000 0.500000
vt 0.625000 0.750000
vt 0.625000 0.000000
vt 0.625000 1.000000
vt 0.875000 0.750000
vt 0.625000 0.250000
vt 0.875000 0.500000
vt 0.625000 0.500000
vt 0.625000 0.750000
vt 0.855605 0.729478
vt 0.855605 0.520522
vt 0.644395 0.520522
vt 0.644395 0.729478
vt 0.855605 0.729478
vt 0.855605 0.520522
vt 0.644395 0.520522
vt 0.644395 0.729478
vt 0.855605 0.729478
vt 0.855605 0.520522
vt 0.644395 0.520522
vt 0.644395 0.729478
vt 0.855605 0.729478
vt 0.855605 0.520522
vt 0.644395 0.520522
vt 0.644395 0.729478
s 0
usemtl 2nd
f 33/59/19 65/103/19 66/106/19 35/63/19
f 35/63/20 66/106/20 67/108/20 39/68/20
f 39/68/21 67/108/21 68/109/21 37/66/21
f 37/66/22 68/109/22 65/104/22 33/60/22
f 35/64/23 39/68/23 37/66/23 33/61/23
f 48/80/21 46/78/21 88/138/21 87/137/21
f 41/70/21 43/74/21 70/113/21 69/110/21
f 43/74/20 47/79/20 71/115/20 70/113/20
f 47/79/19 45/77/19 72/116/19 71/115/19
f 45/77/22 41/71/22 69/111/22 72/116/22
f 43/75/23 41/72/23 45/77/23 47/79/23
f 64/102/20 60/98/20 94/144/20 95/145/20
f 49/81/19 51/85/19 74/120/19 73/117/19
f 51/85/22 55/90/22 75/122/22 74/120/22
f 55/90/21 53/88/21 76/123/21 75/122/21
f 53/88/20 49/82/20 73/118/20 76/123/20
f 51/86/23 49/83/23 53/88/23 55/90/23
f 44/76/22 48/80/22 87/137/22 86/136/22
f 57/92/21 77/124/21 78/127/21 59/96/21
f 59/96/22 78/127/22 79/129/22 63/101/22
f 63/101/19 79/129/19 80/130/19 61/99/19
f 61/99/20 80/130/20 77/125/20 57/93/20
f 59/97/23 63/101/23 61/99/23 57/94/23
f 60/98/19 58/95/19 93/143/19 94/144/19
f 34/62/24 36/65/24 66/107/24 65/105/24
f 36/65/24 40/69/24 67/108/24 66/107/24
f 40/69/24 38/67/24 68/109/24 67/108/24
f 38/67/24 34/62/24 65/105/24 68/109/24
f 44/76/24 42/73/24 69/112/24 70/114/24
f 48/80/24 44/76/24 70/114/24 71/115/24
f 46/78/24 48/80/24 71/115/24 72/116/24
f 42/73/24 46/78/24 72/116/24 69/112/24
f 52/87/24 50/84/24 73/119/24 74/121/24
f 56/91/24 52/87/24 74/121/24 75/122/24
f 54/89/24 56/91/24 75/122/24 76/123/24
f 50/84/24 54/89/24 76/123/24 73/119/24
f 58/95/24 60/98/24 78/128/24 77/126/24
f 60/98/24 64/102/24 79/129/24 78/128/24
f 64/102/24 62/100/24 80/130/24 79/129/24
f 62/100/24 58/95/24 77/126/24 80/130/24
f 83/133/24 82/132/24 81/131/24 84/134/24
f 87/137/24 88/138/24 85/135/24 86/136/24
f 91/141/24 92/142/24 89/139/24 90/140/24
f 95/145/24 94/144/24 93/143/24 96/146/24
f 62/100/21 64/102/21 95/145/21 96/146/21
f 46/78/20 42/73/20 85/135/20 88/138/20
f 36/65/21 34/62/21 81/131/21 82/132/21
f 58/95/22 62/100/22 96/146/22 93/143/22
f 50/84/21 52/87/21 90/140/21 89/139/21
f 40/69/22 36/65/22 82/132/22 83/133/22
f 52/87/20 56/91/20 91/141/20 90/140/20
f 38/67/19 40/69/19 83/133/19 84/134/19
f 56/91/19 54/89/19 92/142/19 91/141/19
f 34/62/20 38/67/20 84/134/20 81/131/20
f 54/89/22 50/84/22 89/139/22 92/142/22
f 42/73/19 44/76/19 86/136/19 85/135/19
o Cube.002
v -0.493030 0.682792 -0.423226
v -0.493030 0.780809 -0.423226
v -0.493030 0.682792 -0.492052
v -0.493030 0.780809 -0.492052
v 0.498090 0.682792 -0.423226
v 0.498090 0.780809 -0.423226
v 0.498090 0.682792 -0.492052
v 0.498090 0.780809 -0.492052
v -0.493030 0.682792 2.246782
v -0.493030 0.780809 2.246782
v -0.493030 0.682792 2.315607
v -0.493030 0.780809 2.315607
v 0.498090 0.682792 2.246782
v 0.498090 0.780809 2.246782
v 0.498090 0.682792 2.315607
v 0.498090 0.780809 2.315607
vn -1.0000 -0.0000 -0.0000
vn -0.0000 -0.0000 -1.0000
vn 1.0000 -0.0000 -0.0000
vn -0.0000 -0.0000 1.0000
vn -0.0000 -1.0000 -0.0000
vn -0.0000 1.0000 -0.0000
vt 0.375000 0.000000
vt 0.375000 1.000000
vt 0.125000 0.750000
vt 0.625000 0.000000
vt 0.625000 1.000000
vt 0.875000 0.750000
vt 0.375000 0.250000
vt 0.125000 0.500000
vt 0.625000 0.250000
vt 0.875000 0.500000
vt 0.375000 0.750000
vt 0.625000 0.750000
vt 0.375000 0.500000
vt 0.625000 0.500000
vt 0.375000 0.000000
vt 0.375000 1.000000
vt 0.125000 0.750000
vt 0.625000 0.000000
vt 0.625000 1.000000
vt 0.875000 0.750000
vt 0.375000 0.250000
vt 0.125000 0.500000
vt 0.625000 0.250000
vt 0.875000 0.500000
vt 0.375000 0.750000
vt 0.625000 0.750000
vt 0.375000 0.500000
vt 0.625000 0.500000
s 0
usemtl 2nd
f 97/147/25 98/150/25 100/155/25 99/153/25
f 99/153/26 100/155/26 104/160/26 103/159/26
f 103/159/27 104/160/27 102/158/27 101/157/27
f 101/157/28 102/158/28 98/151/28 97/148/28
f 99/154/29 103/159/29 101/157/29 97/149/29
f 104/160/30 100/156/30 98/152/30 102/158/30
f 105/161/25 107/167/25 108/169/25 106/164/25
f 107/167/28 111/173/28 112/174/28 108/169/28
f 111/173/27 109/171/27 110/172/27 112/174/27
f 109/171/26 105/162/26 106/165/26 110/172/26
f 107/168/29 105/163/29 109/171/29 111/173/29
f 112/174/30 110/172/30 106/166/30 108/170/30
